HIERARCHY
ROOT joint_Root
{
	OFFSET 0.0 0.0 0.0
	CHANNELS 6 Xposition Yposition Zposition Zrotation Xrotation Yrotation 
	JOINT Hips
	{
		OFFSET 4.5925 91.4895 -427.239
		CHANNELS 6 Xposition Yposition Zposition Zrotation Xrotation Yrotation 
		JOINT Spine
		{
			OFFSET 15.7357 0.0 0.0
			CHANNELS 6 Xposition Yposition Zposition Zrotation Xrotation Yrotation 
			JOINT Chest
			{
				OFFSET 8.98455 -0.406207 0.0
				CHANNELS 6 Xposition Yposition Zposition Zrotation Xrotation Yrotation 
				JOINT Neck
				{
					OFFSET 16.3773 0.0 0.0
					CHANNELS 6 Xposition Yposition Zposition Zrotation Xrotation Yrotation 
					JOINT Head
					{
						OFFSET 6.45672 0.0 0.0
						CHANNELS 6 Xposition Yposition Zposition Zrotation Xrotation Yrotation 
						End Site
						{
							OFFSET 0.0 0.0 0.0
						}
					}
				}
				JOINT Shoulder_L
				{
					OFFSET 12.9942 -0.242716 4.98039
					CHANNELS 6 Xposition Yposition Zposition Zrotation Xrotation Yrotation 
					JOINT UpperArm_L
					{
						OFFSET 5.34809 0.0 0.0
						CHANNELS 6 Xposition Yposition Zposition Zrotation Xrotation Yrotation 
						JOINT LowerArm_L
						{
							OFFSET 24.3286 1.87007e-05 0.0
							CHANNELS 6 Xposition Yposition Zposition Zrotation Xrotation Yrotation 
							JOINT Hand_L
							{
								OFFSET 22.2916 0.0 0.0
								CHANNELS 6 Xposition Yposition Zposition Zrotation Xrotation Yrotation 
								End Site
								{
									OFFSET 0.0 0.0 0.0
								}
							}
						}
					}
				}
				JOINT Shoulder_R
				{
					OFFSET 12.9945 -0.242716 -4.98039
					CHANNELS 6 Xposition Yposition Zposition Zrotation Xrotation Yrotation 
					JOINT UpperArm_R
					{
						OFFSET -5.34813 0.0 0.0
						CHANNELS 6 Xposition Yposition Zposition Zrotation Xrotation Yrotation 
						JOINT LowerArm_R
						{
							OFFSET -24.3289 0.000322201 0.0
							CHANNELS 6 Xposition Yposition Zposition Zrotation Xrotation Yrotation 
							JOINT Hand_R
							{
								OFFSET -22.2915 -0.000108084 0.0
								CHANNELS 6 Xposition Yposition Zposition Zrotation Xrotation Yrotation 
								End Site
								{
									OFFSET 0.0 0.0 0.0
								}
							}
						}
					}
				}
			}
		}
		JOINT UpperLeg_L
		{
			OFFSET -2.19248 -6.46944 0.0
			CHANNELS 6 Xposition Yposition Zposition Zrotation Xrotation Yrotation 
			JOINT LowerLeg_L
			{
				OFFSET 39.0811 0.0 -1.23785e-05
				CHANNELS 6 Xposition Yposition Zposition Zrotation Xrotation Yrotation 
				JOINT Foot_L
				{
					OFFSET 40.9854 0.0 -1.26872e-05
					CHANNELS 6 Xposition Yposition Zposition Zrotation Xrotation Yrotation 
					JOINT Toes_L
					{
						OFFSET 11.7543 0.0 0.0
						CHANNELS 6 Xposition Yposition Zposition Zrotation Xrotation Yrotation 
						End Site
						{
							OFFSET 0.0 0.0 0.0
						}
					}
				}
			}
		}
		JOINT UpperLeg_R
		{
			OFFSET -2.19251 6.46944 0.0
			CHANNELS 6 Xposition Yposition Zposition Zrotation Xrotation Yrotation 
			JOINT LowerLeg_R
			{
				OFFSET -39.0811 -0.00228153 -0.0401928
				CHANNELS 6 Xposition Yposition Zposition Zrotation Xrotation Yrotation 
				JOINT Foot_R
				{
					OFFSET -40.9854 0.0 0.0
					CHANNELS 6 Xposition Yposition Zposition Zrotation Xrotation Yrotation 
					JOINT Toes_R
					{
						OFFSET -11.7543 0.0 0.0
						CHANNELS 6 Xposition Yposition Zposition Zrotation Xrotation Yrotation 
						End Site
						{
							OFFSET 0.0 0.0 0.0
						}
					}
				}
			}
		}
	}
}
MOTION
Frames:	6
Frame Time:	0.0333333
0.000000 0.000000 0.000000 0.000000 0.000000 -0.000000 -2.167170 90.877400 0.151306 88.214800 -2.830060 10.889100 15.735700 0.000005 -0.000001 90.021500 77.386200 -89.860500 8.984550 -0.406207 -0.000000 17.461600 0.022888 0.319158 16.377300 -0.000001 -0.000001 6.122010 -3.314520 0.294973 6.456720 -0.000001 -0.000000 -8.862570 -2.910740 -0.861664 12.994200 -0.242716 4.980390 -91.349700 7.368360 -79.589800 5.348090 -0.000007 -0.000001 -60.882700 30.711300 -25.096000 24.328600 0.000019 0.000005 12.117700 26.061100 -26.045000 22.291600 -0.000001 0.000005 12.018900 5.225210 2.078950 12.994500 -0.242716 -4.980390 89.134400 10.534800 -85.276200 -5.348130 -0.000001 -0.000004 -55.847900 37.907300 -23.989200 -24.328900 0.000322 -0.000009 2.069080 5.163670 -21.881400 -22.291500 -0.000108 -0.000004 15.916600 5.410650 -3.286670 -2.192480 -6.469440 -0.000000 -171.765000 -13.259200 0.757894 39.081100 -0.000007 -0.000012 -0.162691 0.271524 30.929400 40.985400 -0.000006 -0.000013 -0.102909 7.668890 -70.205200 11.754300 -0.000000 0.000003 -0.000189 -0.001764 -16.644200 -2.192510 6.469440 -0.000001 174.662000 23.527100 -176.780000 -39.081100 -0.002282 -0.040193 -0.207157 0.382472 28.822800 -40.985400 0.000008 0.000006 5.335390 17.925400 -70.845400 -11.754300 -0.000006 -0.000006 -0.002231 -0.031576 -17.857100
0.000000 0.000000 0.000000 0.000000 0.000000 -0.000000 -2.148260 90.878000 0.124405 88.213400 -2.793570 10.916700 15.735700 0.000005 -0.000001 90.040100 77.381100 -89.846100 8.984550 -0.406207 -0.000000 17.471700 0.033722 0.383444 16.377300 -0.000001 -0.000001 6.193370 -3.363460 0.442395 6.456720 -0.000001 -0.000000 -8.992850 -2.955720 -0.806780 12.994200 -0.242716 4.980390 -91.316600 7.232550 -79.654100 5.348090 -0.000007 -0.000001 -61.163900 30.188000 -24.955800 24.328600 0.000019 0.000005 12.734900 26.154000 -27.145000 22.291600 -0.000001 0.000005 12.030400 5.230930 1.931130 12.994500 -0.242716 -4.980390 89.143700 10.475100 -85.300300 -5.348130 -0.000001 -0.000004 -55.862200 37.871500 -24.031900 -24.328900 0.000322 -0.000009 2.064020 5.153310 -21.872700 -22.291500 -0.000108 -0.000004 15.909900 5.409520 -3.249230 -2.192480 -6.469440 -0.000000 -171.777000 -13.255400 0.752349 39.081100 -0.000007 -0.000012 -0.159664 0.266303 30.945300 40.985400 -0.000006 -0.000013 -0.071291 7.714110 -70.195900 11.754300 -0.000000 0.000003 -0.000184 -0.001722 -16.642700 -2.192510 6.469440 -0.000001 174.643000 23.552500 -176.776000 -39.081100 -0.002282 -0.040193 -0.207753 0.383391 28.833200 -40.985400 0.000008 0.000006 5.327050 17.924300 -70.825600 -11.754300 -0.000006 -0.000006 -0.002213 -0.031349 -17.847900
0.000000 0.000000 0.000000 0.000000 0.000000 -0.000000 -2.134320 90.871600 0.086140 88.222600 -2.742570 10.960900 15.735700 0.000005 -0.000001 90.008700 77.359900 -89.785100 8.984550 -0.406207 -0.000000 17.514100 0.022697 0.444470 16.377300 -0.000001 -0.000001 6.261230 -3.406840 0.555109 6.456720 -0.000001 -0.000000 -9.140610 -3.012390 -0.672395 12.994200 -0.242716 4.980390 -91.295000 7.130450 -79.679000 5.348090 -0.000007 -0.000001 -61.269000 29.645400 -24.762000 24.328600 0.000019 0.000005 13.471600 25.648700 -28.961500 22.291600 -0.000001 0.000005 12.411300 5.230750 1.935830 12.994500 -0.242716 -4.980390 89.156600 10.386100 -85.331700 -5.348130 -0.000001 -0.000004 -55.876700 37.837300 -24.133400 -24.328900 0.000322 -0.000009 2.064180 5.156800 -21.860800 -22.291500 -0.000108 -0.000004 15.939500 5.408650 -3.220620 -2.192480 -6.469440 -0.000000 -171.805000 -13.208800 0.732543 39.081100 -0.000007 -0.000012 -0.158728 0.264209 30.996300 40.985400 -0.000006 -0.000013 -0.052707 7.711430 -70.193800 11.754300 -0.000000 0.000003 -0.000197 -0.001830 -16.646600 -2.192510 6.469440 -0.000001 174.610000 23.566600 -176.778000 -39.081100 -0.002282 -0.040193 -0.208463 0.383791 28.889200 -40.985400 0.000008 0.000006 5.323000 17.912500 -70.828800 -11.754300 -0.000006 -0.000006 -0.002160 -0.030700 -17.821500
0.000000 0.000000 0.000000 0.000000 0.000000 -0.000000 -2.116140 90.871900 0.041675 88.259400 -2.705140 10.974600 15.735700 0.000005 -0.000001 90.020800 77.345300 -89.779100 8.984550 -0.406207 -0.000000 17.543400 0.029563 0.479776 16.377300 -0.000001 -0.000001 6.315080 -3.444900 0.687976 6.456720 -0.000001 -0.000000 -9.214990 -3.084090 -0.508699 12.994200 -0.242716 4.980390 -91.273500 6.998520 -79.660600 5.348090 -0.000007 -0.000001 -61.272700 29.030500 -24.654400 24.328600 0.000019 0.000005 14.361800 24.923200 -31.283000 22.291600 -0.000001 0.000005 12.816200 5.234490 1.839280 12.994500 -0.242716 -4.980390 89.165300 10.336700 -85.357900 -5.348130 -0.000001 -0.000004 -55.874400 37.751200 -24.199100 -24.328900 0.000322 -0.000009 2.063710 5.144560 -21.903300 -22.291500 -0.000108 -0.000004 15.968000 5.409060 -3.234390 -2.192480 -6.469440 -0.000000 -171.859000 -13.200500 0.697022 39.081100 -0.000007 -0.000012 -0.160717 0.267469 31.001200 40.985400 -0.000006 -0.000013 -0.037775 7.714220 -70.157300 11.754300 -0.000000 0.000003 -0.000167 -0.001588 -16.637800 -2.192510 6.469440 -0.000001 174.574000 23.566300 -176.824000 -39.081100 -0.002282 -0.040193 -0.208826 0.383737 28.934100 -40.985400 0.000008 0.000006 5.309920 17.871100 -70.812900 -11.754300 -0.000006 -0.000006 -0.002173 -0.030867 -17.828300
0.000000 0.000000 0.000000 0.000000 0.000000 -0.000000 -2.112950 90.876000 -0.007354 88.213600 -2.639840 10.949200 15.735700 0.000005 -0.000001 90.111100 77.354500 -89.817200 8.984550 -0.406207 -0.000000 17.524800 0.073119 0.577623 16.377300 -0.000001 -0.000001 6.413830 -3.502200 0.802500 6.456720 -0.000001 -0.000000 -9.264120 -3.197910 -0.306284 12.994200 -0.242716 4.980390 -91.242200 6.809510 -79.636400 5.348090 -0.000007 -0.000001 -61.270300 28.332100 -24.702900 24.328600 0.000019 0.000005 15.236100 24.047000 -33.759700 22.291600 -0.000001 0.000005 13.220900 5.238160 1.743700 12.994500 -0.242716 -4.980390 89.164100 10.298300 -85.334100 -5.348130 -0.000001 -0.000004 -55.876300 37.626100 -24.197500 -24.328900 0.000322 -0.000009 2.006930 4.978050 -22.000800 -22.291500 -0.000108 -0.000004 15.732400 5.407320 -3.176870 -2.192480 -6.469440 -0.000000 -171.834000 -13.164600 0.609600 39.081100 -0.000007 -0.000012 -0.160606 0.266955 31.032300 40.985400 -0.000006 -0.000013 -0.019812 7.755940 -70.135600 11.754300 -0.000000 0.000003 -0.000193 -0.001796 -16.645400 -2.192510 6.469440 -0.000001 174.643000 23.570300 -176.866000 -39.081100 -0.002282 -0.040193 -0.208172 0.383052 28.902600 -40.985400 0.000008 0.000006 5.293290 17.840800 -70.764400 -11.754300 -0.000006 -0.000006 -0.002177 -0.030909 -17.830000
0.000000 0.000000 0.000000 0.000000 0.000000 -0.000000 -2.101830 90.880500 -0.044487 88.248500 -2.568490 10.954900 15.735700 0.000005 -0.000001 90.150000 77.365300 -89.823600 8.984550 -0.406207 -0.000000 17.503100 0.092642 0.639760 16.377300 -0.000001 -0.000001 6.525560 -3.498320 0.860369 6.456720 -0.000001 -0.000000 -9.274740 -3.243940 -0.065326 12.994200 -0.242716 4.980390 -91.224000 6.630790 -79.517200 5.348090 -0.000007 -0.000001 -61.163700 27.555400 -24.983200 24.328600 0.000019 0.000005 16.332600 23.462800 -36.352600 22.291600 -0.000001 0.000005 13.701600 5.242350 1.634210 12.994500 -0.242716 -4.980390 89.170200 10.282800 -85.361000 -5.348130 -0.000001 -0.000004 -55.855300 37.536500 -24.149400 -24.328900 0.000322 -0.000009 2.048790 5.087460 -21.980100 -22.291500 -0.000108 -0.000004 15.781400 5.408720 -3.222930 -2.192480 -6.469440 -0.000000 -171.885000 -13.127200 0.580842 39.081100 -0.000007 -0.000012 -0.161073 0.267964 31.010300 40.985400 -0.000006 -0.000013 -0.001509 7.799640 -70.091500 11.754300 -0.000000 0.000003 -0.000185 -0.001737 -16.643200 -2.192510 6.469440 -0.000001 174.592000 23.647400 -176.883000 -39.081100 -0.002282 -0.040193 -0.207799 0.382178 28.915100 -40.985400 0.000008 0.000006 5.281630 17.815500 -70.744500 -11.754300 -0.000006 -0.000006 -0.002228 -0.031540 -17.855600
